<?xml version="1.0" standalone="no"?>
<!DOCTYPE svg PUBLIC "-//W3C//DTD SVG 20010904//EN"
 "http://www.w3.org/TR/2001/REC-SVG-20010904/DTD/svg10.dtd">
<svg version="1.0" xmlns="http://www.w3.org/2000/svg"
 width="211.000000pt" height="211.000000pt" viewBox="0 0 211.000000 211.000000"
 preserveAspectRatio="xMidYMid meet">
<metadata>
Created by potrace 1.11, written by Peter Selinger 2001-2013
</metadata>
<g transform="translate(0.000000,211.000000) scale(0.100000,-0.100000)"
fill="#000000" stroke="none">
<path d="M725 1800 c-11 -4 -176 -165 -367 -357 l-348 -349 0 -43 0 -43 354
-354 c435 -435 380 -412 561 -234 67 66 127 120 132 120 5 0 64 -54 131 -120
180 -178 126 -200 554 227 318 318 367 374 362 411 -1 6 -2 19 -3 28 -1 20
-693 714 -712 715 -8 1 -27 2 -44 4 -26 2 -45 -13 -151 -116 -67 -66 -128
-119 -136 -119 -8 0 -57 42 -109 93 -52 50 -106 102 -121 115 -29 26 -73 35
-103 22z m247 -455 l206 -205 94 0 c152 0 156 25 23 161 -52 53 -95 101 -95
106 0 15 130 143 145 143 16 0 505 -487 505 -503 0 -15 -492 -507 -506 -507
-15 0 -144 129 -144 143 0 7 44 55 97 109 92 92 97 99 87 125 -9 28 -10 28
-108 31 l-99 3 -201 -199 c-111 -110 -208 -202 -217 -205 -11 -4 -90 69 -262
241 -136 136 -247 252 -247 259 0 15 489 503 505 503 6 0 104 -92 217 -205z"/>
<path d="M652 1147 c-48 -48 -82 -91 -82 -102 0 -27 159 -185 185 -185 27 0
185 159 185 185 0 27 -159 185 -185 185 -12 0 -54 -34 -103 -83z"/>
</g>
</svg>
