<svg id="Layer_1" data-name="Layer 1" xmlns="http://www.w3.org/2000/svg" xmlns:xlink="http://www.w3.org/1999/xlink" viewBox="0 0 266.77 36.08"><defs><style>.cls-1,.cls-4,.cls-6{fill:#1a2c8d;}.cls-1,.cls-2{clip-rule:evenodd;}.cls-2,.cls-3,.cls-8{fill:#00c5d2;}.cls-5{isolation:isolate;}.cls-6,.cls-8{fill-rule:evenodd;}.cls-7{clip-path:url(#clip-path);}.cls-9{clip-path:url(#clip-path-2);}.cls-10{clip-path:url(#clip-path-3);}.cls-11{clip-path:url(#clip-path-4);}</style><clipPath id="clip-path"><path class="cls-1" d="M49.58,16.44,33.8.66a2.26,2.26,0,0,0-3.2,0L25.82,5.45a1,1,0,0,1-1.39,0L19.64.66a2.26,2.26,0,0,0-3.2,0L.66,16.44a2.26,2.26,0,0,0,0,3.2L16.44,35.42a2.26,2.26,0,0,0,3.2,0l4.79-4.79a1,1,0,0,1,1.39,0l4.79,4.79a2.26,2.26,0,0,0,3.2,0L49.58,19.64a2.26,2.26,0,0,0,0-3.2M31.33,30.06l-2.49-2.48a1,1,0,0,1,0-1.39l3.93-3.92a1,1,0,0,0-.69-1.68h-3.6a1,1,0,0,0-.69.29l-9.19,9.18a1,1,0,0,1-1.39,0L6,18.9a1,1,0,0,1,0-1.39L17.19,6.36a1,1,0,0,1,1.39,0l9.22,9.21a1,1,0,0,0,.69.29h3.6a1,1,0,0,0,.69-1.68l-4-4a1,1,0,0,1,0-1.39l2.49-2.48a1,1,0,0,1,1.39,0L43.89,17.52a1,1,0,0,1,0,1.39L32.72,30.06a1,1,0,0,1-1.39,0"/></clipPath><clipPath id="clip-path-2"><path class="cls-2" d="M17.16,22.34,13.81,19a1,1,0,0,1,0-1.46l3.35-3.35a1,1,0,0,1,1.46,0L22,17.53A1,1,0,0,1,22,19l-3.35,3.35a1,1,0,0,1-1.46,0"/></clipPath><clipPath id="clip-path-3"><rect class="cls-3" x="-9.09" y="-8.41" width="485.6" height="1284.13"/></clipPath><clipPath id="clip-path-4"><path class="cls-2" d="M-52.85,22.34-56.2,19a1,1,0,0,1,0-1.46l3.35-3.35a1,1,0,0,1,1.46,0L-48,17.53A1,1,0,0,1-48,19l-3.35,3.35a1,1,0,0,1-1.46,0"/></clipPath></defs><title>PYT_logo</title><path class="cls-4" d="M78.47,17.21a8,8,0,0,1-13,6.62v6.61H61.32l0-21.15h4.17v1.26a7.92,7.92,0,0,1,5.22-1.73A8,8,0,0,1,78.47,17.21Zm-4,0c0-2.91-1.89-4.74-4.42-4.75a4.58,4.58,0,0,0-4.49,4.74A4.56,4.56,0,0,0,70,21.91,4.34,4.34,0,0,0,74.42,17.21Z"/><path class="cls-4" d="M97.18,25.1H93V23.86a8,8,0,0,1-13-6.65,8,8,0,0,1,7.75-8.37A7.92,7.92,0,0,1,93,10.59V9.33H97.2ZM93,17.23a4.58,4.58,0,0,0-4.48-4.75c-2.53,0-4.43,1.83-4.43,4.74a4.34,4.34,0,0,0,4.42,4.71A4.56,4.56,0,0,0,93,17.23Z"/><path class="cls-4" d="M107.64,30.49H103l2.53-5.88L99,9.3h4.65l4.16,10.09,4.37-10.08h4.65Z"/><path class="cls-4" d="M133.84,17.27a8.2,8.2,0,0,1-8.51,8.27c-4.71,0-8.59-3.33-8.59-8.29S120.63,9,125.34,9A8.2,8.2,0,0,1,133.84,17.27Zm-4,0a4.51,4.51,0,1,0-9,0,4.51,4.51,0,1,0,9,0Z"/><path class="cls-4" d="M151.55,25.16h-4.17V23.73a6.72,6.72,0,0,1-5,1.89c-3.79,0-6.32-2.72-6.32-6.64V9.37h4.17V18.1c0,2.21,1.26,3.7,3.19,3.7,2.37,0,3.92-1.58,3.92-5.43v-7h4.17Z"/><path class="cls-4" d="M166.88,24.48a8,8,0,0,1-4.11,1.17c-3.73,0-6.19-2-6.19-6.3V12.8H153.2V9.39h3.38V4.62h4.17V9.39h5.15v3.41h-5.15V19c0,1.9.91,2.72,2.3,2.72a6.28,6.28,0,0,0,2.62-.76Z"/><path class="cls-4" d="M175.62,22.92a2.5,2.5,0,0,1-5,0,2.5,2.5,0,0,1,5,0Z"/><path class="cls-4" d="M189,24.51a8,8,0,0,1-4.11,1.17c-3.73,0-6.19-2-6.19-6.3V12.84h-3.38V9.42h3.38V4.65h4.17V9.43H188v3.41h-5.15v6.23c0,1.9.91,2.72,2.3,2.72A6.28,6.28,0,0,0,187.8,21Z"/><path class="cls-4" d="M205.46,18.46h-12a4.08,4.08,0,0,0,3.95,3.67A4,4,0,0,0,201.32,20l3.73.79a7.8,7.8,0,0,1-7.65,4.86,8,8,0,0,1-8.08-8.35,8.08,8.08,0,1,1,16.15-.3Zm-11.88-3h7.62a3.67,3.67,0,0,0-3.73-2.91A4,4,0,0,0,193.58,15.51Z"/><path class="cls-4" d="M224.16,25.24H220V24a8,8,0,0,1-13-6.65A8,8,0,0,1,214.79,9,7.92,7.92,0,0,1,220,10.73V9.46h4.17ZM220,17.37a4.58,4.58,0,0,0-4.48-4.75c-2.53,0-4.43,1.83-4.43,4.74a4.34,4.34,0,0,0,4.42,4.71A4.56,4.56,0,0,0,220,17.37Z"/><path class="cls-4" d="M253.77,15.41v9.86h-4.14v-9a3.11,3.11,0,0,0-3.09-3.42c-2.21,0-3.67,1.51-3.67,4.83v7.59h-4.17v-9a3.11,3.11,0,0,0-3.09-3.42c-2.21,0-3.6,1.51-3.61,4.83v7.59h-4.17l0-15.77H232v1.3A6.39,6.39,0,0,1,236.71,9a6.14,6.14,0,0,1,5.18,2.6A7.07,7.07,0,0,1,247.65,9,6.12,6.12,0,0,1,253.77,15.41Z"/><g class="cls-5"><path class="cls-6" d="M49.58,16.44,33.8.66a2.26,2.26,0,0,0-3.2,0L25.82,5.45a1,1,0,0,1-1.39,0L19.64.66a2.26,2.26,0,0,0-3.2,0L.66,16.44a2.26,2.26,0,0,0,0,3.2L16.44,35.42a2.26,2.26,0,0,0,3.2,0l4.79-4.79a1,1,0,0,1,1.39,0l4.79,4.79a2.26,2.26,0,0,0,3.2,0L49.58,19.64a2.26,2.26,0,0,0,0-3.2M31.33,30.06l-2.49-2.48a1,1,0,0,1,0-1.39l3.93-3.92a1,1,0,0,0-.69-1.68h-3.6a1,1,0,0,0-.69.29l-9.19,9.18a1,1,0,0,1-1.39,0L6,18.9a1,1,0,0,1,0-1.39L17.19,6.36a1,1,0,0,1,1.39,0l9.22,9.21a1,1,0,0,0,.69.29h3.6a1,1,0,0,0,.69-1.68l-4-4a1,1,0,0,1,0-1.39l2.49-2.48a1,1,0,0,1,1.39,0L43.89,17.52a1,1,0,0,1,0,1.39L32.72,30.06a1,1,0,0,1-1.39,0"/><g class="cls-7"><rect class="cls-4" width="50.25" height="36.08"/></g></g><path class="cls-8" d="M17.16,22.34,13.81,19a1,1,0,0,1,0-1.46l3.35-3.35a1,1,0,0,1,1.46,0L22,17.53A1,1,0,0,1,22,19l-3.35,3.35a1,1,0,0,1-1.46,0"/><g class="cls-9"><rect class="cls-3" x="-9.09" y="-8.41" width="485.6" height="1284.13"/><g class="cls-10"><rect class="cls-3" x="11.82" y="12.19" width="12.14" height="12.14"/></g></g><path class="cls-8" d="M-52.85,22.34-56.2,19a1,1,0,0,1,0-1.46l3.35-3.35a1,1,0,0,1,1.46,0L-48,17.53A1,1,0,0,1-48,19l-3.35,3.35a1,1,0,0,1-1.46,0"/><g class="cls-11"><rect class="cls-3" x="-79.1" y="-8.41" width="485.6" height="1284.13"/></g></svg>